<svg width="24" height="23" viewBox="0 0 24 23" fill="none" xmlns="http://www.w3.org/2000/svg">
<path d="M12 10.2857C10.5714 10.2857 9.35714 9.78572 8.35714 8.78572C7.35714 7.78572 6.85714 6.57143 6.85714 5.14286C6.85714 3.74286 7.35714 2.53543 8.35714 1.52057C9.35714 0.506859 10.5714 0 12 0C13.4286 0 14.6429 0.506859 15.6429 1.52057C16.6429 2.53543 17.1429 3.74286 17.1429 5.14286C17.1429 6.57143 16.6429 7.78572 15.6429 8.78572C14.6429 9.78572 13.4286 10.2857 12 10.2857ZM0 22.7143V19.8857C0 19.1714 0.207429 18.5069 0.622286 17.892C1.036 17.2783 1.58571 16.8 2.27143 16.4571C3.9 15.6857 5.52171 15.1069 7.13657 14.7206C8.75029 14.3354 10.3714 14.1429 12 14.1429C13.6286 14.1429 15.2503 14.3354 16.8651 14.7206C18.4789 15.1069 20.1 15.6857 21.7286 16.4571C22.4143 16.8 22.9646 17.2783 23.3794 17.892C23.7931 18.5069 24 19.1714 24 19.8857V22.7143H0ZM1.71429 21H22.2857V19.8857C22.2857 19.4857 22.1646 19.1211 21.9223 18.792C21.6789 18.464 21.3429 18.1857 20.9143 17.9571C19.4857 17.2714 18.0217 16.7503 16.5223 16.3937C15.0217 16.036 13.5143 15.8571 12 15.8571C10.4857 15.8571 8.97886 16.036 7.47943 16.3937C5.97886 16.7503 4.51429 17.2714 3.08571 17.9571C2.65714 18.1857 2.32171 18.464 2.07943 18.792C1.836 19.1211 1.71429 19.4857 1.71429 19.8857V21ZM12 8.57143C12.9429 8.57143 13.7503 8.23543 14.4223 7.56343C15.0931 6.89257 15.4286 6.08572 15.4286 5.14286C15.4286 4.2 15.0931 3.39314 14.4223 2.72229C13.7503 2.05029 12.9429 1.71429 12 1.71429C11.0571 1.71429 10.2503 2.05029 9.57943 2.72229C8.90743 3.39314 8.57143 4.2 8.57143 5.14286C8.57143 6.08572 8.90743 6.89257 9.57943 7.56343C10.2503 8.23543 11.0571 8.57143 12 8.57143Z" fill="black"/>
</svg>
