<svg width="24" height="24" viewBox="0 0 24 24" fill="none" xmlns="http://www.w3.org/2000/svg">
<path d="M0.372177 23.6233L0.376585 23.6277C0.493478 23.7455 0.632494 23.839 0.785639 23.9028C0.938785 23.9667 1.10304 23.9996 1.26896 23.9998C1.40857 23.9997 1.54722 23.9766 1.67938 23.9316L8.87462 21.4908L22.6818 7.6836C23.5259 6.83946 24.0001 5.69458 24 4.50084C23.9999 3.30709 23.5257 2.16225 22.6815 1.31818C21.8374 0.474112 20.6925 -5.22578e-05 19.4988 4.31977e-09C18.305 5.22665e-05 17.1602 0.474317 16.3161 1.31846L2.50892 15.1257L0.0683174 22.3207C-0.00856171 22.5444 -0.020833 22.7853 0.0329105 23.0157C0.086654 23.2461 0.204237 23.4567 0.372177 23.6233ZM17.4627 2.46494C18.0034 1.92832 18.7348 1.62785 19.4966 1.62931C20.2584 1.63077 20.9886 1.93406 21.5273 2.47275C22.066 3.01144 22.3692 3.74163 22.3707 4.50345C22.3721 5.26526 22.0716 5.9966 21.535 6.53733L19.7193 8.35299L15.6469 4.2806L17.4627 2.46494ZM3.92308 16.0045L14.5005 5.42708L18.5728 9.49947L7.99542 20.0768L1.8324 22.1675L3.92308 16.0045Z" fill="black"/>
</svg>
